<?xml version="1.0" encoding="iso-8859-1"?>
<!-- Generator: Adobe Illustrator 18.0.0, SVG Export Plug-In . SVG Version: 6.00 Build 0)  -->
<!DOCTYPE svg PUBLIC "-//W3C//DTD SVG 1.1//EN" "http://www.w3.org/Graphics/SVG/1.1/DTD/svg11.dtd">
<svg version="1.1" id="Capa_1" xmlns="http://www.w3.org/2000/svg" xmlns:xlink="http://www.w3.org/1999/xlink" x="0px" y="0px"
	 viewBox="0 0 429.993 429.993" style="enable-background:new 0 0 429.993 429.993;" xml:space="preserve">
<path d="M422.18,47.949c-0.548-1.644-1.858-2.98-3.595-3.517c-2.447-0.757-5.096,0.278-6.382,2.495
	c-7.073,12.196-18.473,20.908-32.098,24.53c-10.837,2.882-22.18,2.234-32.51-1.75l4.287-7.392c0.731-1.262,0.933-2.763,0.558-4.172
	c-0.375-1.41-1.294-2.613-2.557-3.345l-6.941-4.026l9.886-17.046c0.731-1.262,0.933-2.763,0.558-4.172
	c-0.375-1.41-1.294-2.613-2.557-3.345l-23.89-13.854c-2.627-1.524-5.992-0.629-7.517,1.999L309.538,31.4l-6.941-4.026
	c-2.627-1.524-5.993-0.629-7.517,1.999l-5.596,9.65L273.371,28.59c-2.453-1.587-5.718-0.982-7.436,1.379l-40.33,55.396
	c-1.173,1.61-1.383,3.728-0.55,5.537c0.833,1.809,2.579,3.027,4.564,3.183l26.712,2.101l-4.111,7.089
	c-0.731,1.262-0.933,2.763-0.558,4.172c0.375,1.41,1.294,2.613,2.557,3.345l6.941,4.026l-46.162,79.598l-46.161-79.601l6.936-4.022
	c2.628-1.524,3.522-4.889,1.999-7.517l-4.111-7.089l26.713-2.101c1.985-0.156,3.731-1.374,4.564-3.183s0.623-3.927-0.55-5.538
	L164.057,29.97c-1.719-2.361-4.985-2.967-7.436-1.379L140.51,39.022l-5.596-9.65c-0.731-1.262-1.935-2.181-3.345-2.556
	c-1.408-0.374-2.911-0.175-4.172,0.558l-6.941,4.026l-9.886-17.046c-1.524-2.628-4.891-3.522-7.517-1.999L79.164,26.21
	c-1.263,0.732-2.182,1.935-2.557,3.345c-0.375,1.41-0.174,2.91,0.558,4.172l9.886,17.046l-6.941,4.026
	c-2.628,1.524-3.522,4.889-1.999,7.517l4.287,7.392c-10.331,3.984-21.676,4.631-32.51,1.75C36.26,67.835,24.862,59.124,17.79,46.928
	c-1.248-2.152-3.783-3.191-6.187-2.546c-1.764,0.474-3.132,1.778-3.735,3.422c-12.76,32.997-9.899,69.465,7.851,100.073
	c17.725,30.563,47.896,51.142,82.809,56.491c0.356,0.072,0.719,0.107,1.081,0.107c1.353,0,2.698-0.498,3.746-1.472
	c1.881-1.749,2.301-4.566,1.013-6.788c-13.175-22.717-7.612-51.219,12.317-67.387l4.285,7.389c0.731,1.262,1.935,2.181,3.345,2.556
	c0.465,0.124,0.939,0.185,1.413,0.185c0.961,0,1.914-0.252,2.759-0.742l6.944-4.027l57.249,98.715l-94.739,163.36
	c-0.731,1.262-0.933,2.763-0.558,4.172c0.375,1.41,1.294,2.613,2.557,3.345l23.89,13.854c0.868,0.504,1.817,0.743,2.754,0.743
	c1.896,0,3.742-0.983,4.763-2.742l83.651-144.241l83.649,144.241c0.732,1.262,1.936,2.182,3.346,2.557
	c0.465,0.124,0.939,0.185,1.413,0.185c0.961,0,1.914-0.252,2.76-0.743l23.891-13.86c2.627-1.524,3.521-4.889,1.998-7.516
	l-24.069-41.519c-0.052-0.088-0.104-0.175-0.16-0.26L237.32,232.9l57.246-98.71l6.942,4.026c0.868,0.504,1.817,0.743,2.754,0.743
	c1.896,0,3.742-0.983,4.763-2.742l4.285-7.389c19.929,16.168,25.491,44.67,12.316,67.387c-1.288,2.221-0.862,5.035,1.019,6.784
	c1.047,0.973,2.392,1.47,3.745,1.47c0.313,0,0.625-0.026,0.936-0.08c34.971-5.315,65.2-25.908,82.949-56.512
	C431.999,117.314,434.876,80.907,422.18,47.949z M326.18,24.63l14.374,8.336l-7.127,12.288l-14.374-8.336L326.18,24.63z
	 M262.452,85.633l-22.166-1.743l31.478-43.236l12.195,7.896L262.452,85.633z M158.229,40.654l31.479,43.236l-22.167,1.743
	L146.035,48.55L158.229,40.654z M89.439,32.966l14.374-8.336l7.127,12.288l-14.374,8.336L89.439,32.966z M90.031,191.429
	c-27.255-6.94-50.499-24.417-64.797-49.07C10.937,117.706,7.311,88.853,14.823,61.751c8.346,9.868,19.484,16.948,32.237,20.338
	c13.666,3.633,28.005,2.638,40.919-2.756l23.124,39.874C88.922,136.224,80.631,165.57,90.031,191.429z M127.725,125.942
	L90.384,61.555l37.772-21.906l37.341,64.387L127.725,125.942z M144.945,128.671l14.377-8.338l49.319,85.046l-9.605,16.562
	L144.945,128.671z M128.774,365.02l14.374,8.336l-5.016,8.65l-14.374-8.336L128.774,365.02z M124.587,405.361l-14.374-8.336
	l8.026-13.84l14.374,8.336L124.587,405.361z M301.223,365.018l5.015,8.651l-14.38,8.34l-5.016-8.65L301.223,365.018z
	 M305.401,405.362l-8.025-13.838l14.379-8.339l8.021,13.837L305.401,405.362z M295.698,355.506l-14.375,8.337l-59.97-103.41
	l9.609-16.57L295.698,355.506z M148.666,363.841l-14.374-8.336l136.384-235.169l14.374,8.336L148.666,363.841z M302.268,125.942
	l-37.773-21.906l37.341-64.387l37.773,21.906L302.268,125.942z M404.759,142.359c-14.298,24.653-37.542,42.13-64.797,49.07
	c9.401-25.858,1.11-55.204-21.071-72.222l23.124-39.874c12.914,5.394,27.256,6.388,40.918,2.756
	c12.753-3.39,23.891-10.47,32.237-20.338C422.681,88.854,419.055,117.706,404.759,142.359z"/>
<g>
</g>
<g>
</g>
<g>
</g>
<g>
</g>
<g>
</g>
<g>
</g>
<g>
</g>
<g>
</g>
<g>
</g>
<g>
</g>
<g>
</g>
<g>
</g>
<g>
</g>
<g>
</g>
<g>
</g>
</svg>
